# xmcd
#
# Track frame offsets:
#	150
#	20057
#	43380
#	67035
#	86657
#	109147
#	130872
#	151095
#	171162
#	200272
#	224817
#
# Disc length: 3226 seconds
# Revision: 0
# Processed by: cddbd v1.5.2PL0 Copyright (c) Steve Scherf et al.
# Submitted via: dBpowerAMP V12.0
#
DISCID=a30c980b
DTITLE=Plastic Tree - Cell
DYEAR=2004
DGENRE=Alternative
TTITLE0=Cell
TTITLE1=Melancholic
TTITLE2=Spring Sentimental
TTITLE3=Dance Macabura
TTITLE4=Monster 
TTITLE5=Crackpot
TTITLE6=“Firefly Snow”
TTITLE7=Comic Youth
TTITLE8=Needle Pagoda Tree
TTITLE9=Heedlessness
TTITLE10=Dream Island
EXTD=
EXTT0=
EXTT1=
EXTT2=
EXTT3=
EXTT4=
EXTT5=
EXTT6=
EXTT7=
EXTT8=
EXTT9=
EXTT10=
PLAYORDER=
